Coordinates
version=1
nRows=8
nColumns=42
inDegrees=yes

Units are S.I. units (second, meters, Newtons, ...)
If the header above contains a line with 'inDegrees', this indicates whether rotational values are in degrees (yes) or radians (no).

endheader
time	pelvis_tilt	pelvis_list	pelvis_rotation	pelvis_tx	pelvis_ty	pelvis_tz	hip_flexion_r	hip_adduction_r	hip_rotation_r	knee_angle_r	knee_adduction_r	knee_angle_r_beta	ankle_angle_r	subtalar_angle_r	mtp_angle_r	hip_flexion_l	hip_adduction_l	hip_rotation_l	knee_angle_l	knee_adduction_l	knee_angle_l_beta	ankle_angle_l	subtalar_angle_l	mtp_angle_l	lumbar_extension	lumbar_bending	lumbar_rotation	arm_flex_r	arm_add_r	arm_rot_r	elbow_flex_r	pro_sup_r	wrist_flex_r	wrist_dev_r	arm_flex_l	arm_add_l	arm_rot_l	elbow_flex_l	pro_sup_l	wrist_flex_l	wrist_dev_l
      1.32000000	     20.71556064	      3.19452941	      2.79497219	      0.02689701	      0.93729923	     -0.26160410	    -22.85436746	     -9.74611281	    -16.09123871	     54.65881010	     -1.08260949	      0.95397620	     -3.37482154	     12.11109575	     -7.64317113	     -6.78567117	      7.95163359	     -5.99864325	     24.76079593	     -5.24971437	      0.43215741	     17.71804074	      3.31483329	     -7.64317113	    -32.33362072	     -3.85344493	      3.35368440	     10.39173016	    -11.63523501	    -20.24022021	     28.10308148	     90.00000001	      0.00000000	      0.00000000	     -3.57919082	    -17.44901050	      2.47495233	     69.92562886	     90.00000001	      0.00000000	      0.00000000
      1.33000000	     20.76615706	      3.09794114	      2.79112858	      0.03205805	      0.93765259	     -0.26341847	    -21.72129527	     -9.82561267	    -16.08188189	     56.59670433	     -1.55800139	      0.98779884	     -2.50910480	     10.91389718	     -7.63912721	     -7.18284782	      7.90790032	     -5.74087250	     24.85369104	     -5.04656729	      0.43377874	     18.10947810	      3.18882171	     -7.63912721	    -32.46835697	     -3.79907690	      3.36120015	      9.90022460	    -11.77310893	    -20.55763847	     27.95523133	     90.00000001	      0.00000000	      0.00000000	     -3.40126893	    -17.56371131	      2.48946665	     70.18602511	     90.00000001	      0.00000000	      0.00000000
      1.34000000	     20.75577869	      3.04902553	      2.76577530	      0.03693019	      0.93794900	     -0.26521751	    -20.49943186	    -10.02214681	    -15.73126393	     58.47039447	     -1.53665119	      1.02050090	     -1.55964565	      9.11415861	     -7.63133704	     -7.49977962	      7.97140448	     -5.10004786	     24.98228385	     -4.77163617	      0.43602311	     18.13406091	      2.18066530	     -7.63133704	    -32.57123731	     -3.79524113	      3.33643805	      9.58282234	    -11.82889548	    -21.42687135	     27.60639549	     90.00000001	      0.00000000	      0.00000000	     -3.19708621	    -17.67908763	      2.56867554	     70.35623156	     90.00000001	      0.00000000	      0.00000000
      1.35000000	     21.00171391	      2.81721749	      2.65472512	      0.04192072	      0.93874260	     -0.26659614	    -19.57455997	     -9.85447615	    -15.81812297	     59.85620688	     -2.19232359	      1.04468789	     -0.17417496	      8.22577970	     -7.62914061	     -8.18329668	      7.73266605	     -4.72254387	     24.90595743	     -4.40934439	      0.43469096	     18.46029230	      1.97617217	     -7.62914061	    -32.91762380	     -3.65676163	      3.47746096	      9.14742714	    -11.99069243	    -21.61513216	     27.46368799	     90.00000001	      0.00000000	      0.00000000	     -3.00098363	    -17.75020631	      2.50305122	     70.60882571	     90.00000001	      0.00000000	      0.00000000
      1.36000000	     20.97118432	      2.87459903	      2.63352194	      0.04642234	      0.93909373	     -0.26843051	    -18.29555755	    -10.12347837	    -15.94687357	     61.38442782	     -2.52256461	      1.07136037	      1.31460927	      6.99616077	     -7.62084256	     -8.60914146	      7.94151603	     -3.39227710	     24.76661821	     -3.88437784	      0.43225903	     18.02792153	     -0.13252200	     -7.62084256	    -33.03969601	     -3.74287574	      3.33925022	      8.96911239	    -11.98325152	    -22.78691818	     27.07665049	     90.00000001	      0.00000000	      0.00000000	     -2.78615777	    -17.89495672	      2.57214035	     70.74698110	     90.00000001	      0.00000000	      0.00000000
      1.37000000	     21.23088740	      2.64448429	      2.53185743	      0.05117730	      0.93994878	     -0.26969083	    -17.38519096	     -9.87934750	    -16.13634933	     62.33189501	     -3.20528345	      1.08789680	      2.96623466	      6.28624540	     -7.61889466	     -9.33906822	      7.71375436	     -3.04446736	     24.57301753	     -3.56896632	      0.42888006	     18.27698652	     -0.32589921	     -7.61889466	    -33.41153530	     -3.60126107	      3.42524618	      8.60191217	    -12.11160152	    -22.98066268	     26.91796920	     90.00000001	      0.00000000	      0.00000000	     -2.59456594	    -17.98051493	      2.49093931	     70.94450831	     90.00000001	      0.00000000	      0.00000000
      1.38000000	     21.39307175	      2.46695646	      2.44094831	      0.05575403	      0.94062806	     -0.27096672	    -16.34131116	     -9.68870729	    -16.39029184	     63.14249778	     -3.87461420	      1.10204448	      4.66509626	      5.67709210	     -7.61696110	     -9.95168388	      7.57675567	     -2.64228095	     24.38394355	     -3.30315932	      0.42558010	     18.43932293	     -0.68643579	     -7.61696110	    -33.69260919	     -3.51576136	      3.45519884	      8.28379362	    -12.21909738	    -23.20759690	     26.73322529	     90.00000001	      0.00000000	      0.00000000	     -2.41546371	    -18.10355299	      2.43563867	     71.11101507	     90.00000001	      0.00000000	      0.00000000
      1.39000000	     21.48862197	      2.35381759	      2.37456102	      0.06014857	      0.94123068	     -0.27228650	    -15.21679060	     -9.53008654	    -16.67007928	     63.77057561	     -4.54682657	      1.11300651	      6.38808055	      5.32055282	     -7.61476950	    -10.51473603	      7.51756351	     -2.16202280	     24.12249982	     -3.00884664	      0.42101705	     18.45504754	     -1.23188578	     -7.61476950	    -33.92979125	     -3.48208595	      3.40767599	      8.01109795	    -12.27073510	    -23.55151394	     26.51891202	     90.00000001	      0.00000000	      0.00000000	     -2.24545163	    -18.21508948	      2.40447774	     71.25340450	     90.00000001	      0.00000000	      0.00000000
